<?xml version="1.0" encoding="UTF-8"?>
<svg xmlns="http://www.w3.org/2000/svg" xmlns:xlink="http://www.w3.org/1999/xlink" viewBox="0 0 383.89 383.89">
  <defs>
    <style>
      .uuid-4ad839ae-871e-4d79-a804-ff9a0e91f4ad {
        fill: url(#uuid-374e94a9-b416-446c-826a-02d4dbbfbdf1);
      }

      .uuid-4ad839ae-871e-4d79-a804-ff9a0e91f4ad, .uuid-67abc6a5-3907-42d4-af19-8e0c24ee04f4, .uuid-f9664035-030f-4c21-a6db-006e5b843af0, .uuid-76de373d-c6e8-469d-a246-05917a893980, .uuid-388c2ff2-5ab3-4baf-9171-741f858d8bb1, .uuid-a3cbd9e7-6078-430a-abab-e1c69afce7cf {
        stroke-width: 0px;
      }

      .uuid-4ad839ae-871e-4d79-a804-ff9a0e91f4ad, .uuid-67abc6a5-3907-42d4-af19-8e0c24ee04f4, .uuid-f9664035-030f-4c21-a6db-006e5b843af0, .uuid-a3cbd9e7-6078-430a-abab-e1c69afce7cf {
        mix-blend-mode: screen;
      }

      .uuid-67abc6a5-3907-42d4-af19-8e0c24ee04f4 {
        fill: url(#uuid-92118805-b49b-46f0-a6d5-35f9cdfcc186);
      }

      .uuid-f9664035-030f-4c21-a6db-006e5b843af0 {
        fill: url(#uuid-5548cd5f-7847-44c7-aca8-b8c98bc1dbbf);
      }

      .uuid-76de373d-c6e8-469d-a246-05917a893980 {
        fill: #625eab;
      }

      .uuid-76de373d-c6e8-469d-a246-05917a893980, .uuid-388c2ff2-5ab3-4baf-9171-741f858d8bb1 {
        fill-rule: evenodd;
      }

      .uuid-bc37a079-b5ad-4fb5-8fad-218fb86ffe23 {
        opacity: .2;
      }

      .uuid-388c2ff2-5ab3-4baf-9171-741f858d8bb1 {
        fill: #fff;
      }

      .uuid-c4087795-4e0b-4ba6-bdae-47a0aeb87830 {
        isolation: isolate;
      }

      .uuid-a3cbd9e7-6078-430a-abab-e1c69afce7cf {
        fill: url(#uuid-76c307dc-8779-4ad0-b9db-6c980fd80c32);
      }
    </style>
    <radialGradient id="uuid-92118805-b49b-46f0-a6d5-35f9cdfcc186" data-name="¡ÂÁ˚ÏˇÌÌ˚È „‡‰ËÂÌÚ 18" cx="-1331.03" cy="504.73" fx="-1331.03" fy="504.73" r="55.25" gradientTransform="translate(3383.36 -1004.32) scale(2.39 2.37)" gradientUnits="userSpaceOnUse">
      <stop offset="0" stop-color="#5d2798"/>
      <stop offset=".16" stop-color="#5a2593"/>
      <stop offset=".32" stop-color="#522287"/>
      <stop offset=".49" stop-color="#461d72"/>
      <stop offset=".65" stop-color="#341655"/>
      <stop offset=".82" stop-color="#1d0c30"/>
      <stop offset=".99" stop-color="#020003"/>
      <stop offset="1" stop-color="#000"/>
    </radialGradient>
    <radialGradient id="uuid-76c307dc-8779-4ad0-b9db-6c980fd80c32" data-name="¡ÂÁ˚ÏˇÌÌ˚È „‡‰ËÂÌÚ 558" cx="-1329.85" cy="502.61" fx="-1329.85" fy="502.61" r="47.14" gradientTransform="translate(3378.87 -1005.14) scale(2.39 2.37)" gradientUnits="userSpaceOnUse">
      <stop offset="0" stop-color="#213a9f"/>
      <stop offset=".16" stop-color="#20389a"/>
      <stop offset=".31" stop-color="#1d348e"/>
      <stop offset=".48" stop-color="#192c7a"/>
      <stop offset=".64" stop-color="#13225d"/>
      <stop offset=".8" stop-color="#0b1438"/>
      <stop offset=".96" stop-color="#02040c"/>
      <stop offset="1" stop-color="#000"/>
    </radialGradient>
    <radialGradient id="uuid-374e94a9-b416-446c-826a-02d4dbbfbdf1" data-name="¡ÂÁ˚ÏˇÌÌ˚È „‡‰ËÂÌÚ 223" cx="-1331.9" cy="502.76" fx="-1331.9" fy="502.76" r="80.51" gradientTransform="translate(3380.67 -1001.48) scale(2.39 2.37)" gradientUnits="userSpaceOnUse">
      <stop offset="0" stop-color="#2f54bd"/>
      <stop offset="1" stop-color="#000"/>
    </radialGradient>
    <radialGradient id="uuid-5548cd5f-7847-44c7-aca8-b8c98bc1dbbf" data-name="¡ÂÁ˚ÏˇÌÌ˚È „‡‰ËÂÌÚ 207" cx="-1331.9" cy="502.76" fx="-1331.9" fy="502.76" r="54.89" gradientTransform="translate(3380.67 -1001.48) scale(2.39 2.37)" gradientUnits="userSpaceOnUse">
      <stop offset="0" stop-color="#2f54bd"/>
      <stop offset=".13" stop-color="#2a4cab"/>
      <stop offset=".39" stop-color="#1f387e"/>
      <stop offset=".75" stop-color="#0d1837"/>
      <stop offset="1" stop-color="#000"/>
    </radialGradient>
  </defs>
  <g class="uuid-c4087795-4e0b-4ba6-bdae-47a0aeb87830">
    <g id="uuid-ae826ec3-28a7-4ec4-8931-3d734372e9f1" data-name="moon">
      <g>
        <g>
          <ellipse class="uuid-67abc6a5-3907-42d4-af19-8e0c24ee04f4" cx="196.72" cy="193.77" rx="132.28" ry="131.16" transform="translate(-79.4 195.86) rotate(-45)"/>
          <ellipse class="uuid-a3cbd9e7-6078-430a-abab-e1c69afce7cf" cx="195.16" cy="188.22" rx="112.85" ry="111.89" transform="translate(-75.93 193.1) rotate(-44.99)"/>
          <path class="uuid-388c2ff2-5ab3-4baf-9171-741f858d8bb1" d="M280.92,189.3c0,46.92-38.03,84.95-84.95,84.95-39.88,0-73.33-27.47-82.48-64.52-1.61-6.54-2.47-13.38-2.47-20.43,0-3.11.17-6.19.49-9.22,4.59-42.59,40.65-75.74,84.46-75.74,46.92,0,84.95,38.03,84.95,84.96Z"/>
          <g class="uuid-bc37a079-b5ad-4fb5-8fad-218fb86ffe23">
            <path class="uuid-76de373d-c6e8-469d-a246-05917a893980" d="M174.51,246.72c1.06,2.28,1.78,4.28,3.6,6.17,1.98,2.05,3.51,2.44,6.08,3.19,1.49.44,1.8.96,3.7.93,1.24-.02,2.97-.32,4.17-.05,2.69.61,4.13,3,7.15,3.16,2.87.16,4.71-.79,7.2-1.56,2.34-.72,5.06-1.74,7.23-2.56,2.37-.9,4.49-1.53,6.94-2.32,2.63-.84,3.98-2.6,7.28-1.68.21,1.23-.09,3.17,1.41,3.78,1.03.42,2.75-.67,3.86-1.1,2.88-1.11,5.49-1.72,8.23-2.86,1.33-.56,2.29-.52,3.63-1.52,1.29-.96,2.68-1.67,4.02-2.57,2.49-1.66,4.93-3.46,7.4-5.15,4.75-3.23,7.82-7.67,10.7-12.35,1.52-2.47,2.39-5.18,3.34-8,1.17-3.47.78-4.45-1.54-7.28-4.16,1.73-5.81-.84-4.66-5.3,1.01-3.9,1.45-9.08.57-13.15-.16-.72-.71-1.24-.83-2.26-.13-1.13.1-1.97-.2-3.11-.49-1.87-.81-3.13-.8-5.15.01-2.02.28-4.23-.23-6.17-.32-1.23-.76-1.75-.82-3.09-.07-1.37.17-2.57-.21-3.88-.99-3.44-4.13-4.4-6.97-5.38-1.94-.67-2.91-1.33-4.14-.02-1.32,1.4-.99,3.33-1,5.16-.02,3.44,2.19,6.47,4.11,9.26.85,1.24,2.35,2.44,2.14,4.15-.12.94-1.28,1.08-1.21,2.03.09,1.14,1.32,1.49,1.93,2.29,4.91,6.41-4.34,12.06-8.75,15.46-2.51,1.94-6.29,2.93-7.25,6.15-1.03,3.44,1.35,6.32,2.6,9.26,1.31,3.08,2.44,8.48.53,11.37-.81,1.23-2.4,1.96-3.62,2.55-1.81.87-2.49,1.95-4.09,3.11-2.6,1.89-5.81,2.51-9.03,2.31-2.05-.13-3.53-.96-5.14-2.08-1.24-.86-2.89-2.44-4.35-2.85-1.05-.3-1.82-.07-2.88-.2-1.45-.18-1.73-.78-3-1.11-2.19-.57-3.74.98-5.46,1.85-1.46.74-3.18,1.79-4.95,1.33-1.7-.44-3.68-1.54-5.32-1.88-3.93-.81-10.28-1.09-13.43,1.57-1.59,1.35-2.14,3.23-3.56,4.65-1.35,1.35-3.97,1.71-4.39,4.87Z"/>
            <path class="uuid-76de373d-c6e8-469d-a246-05917a893980" d="M252.71,157.2c-3.77.08-7.24-2.76-10.32-4.89-2.53-1.75-5.18-4.5-6.4-7.2-.37-.82-.49-1.49-.78-2.31-.06-.18-.98-2.63-.98-2.7.04-1.43,1.2-3.14,2.27-4.24,3.07-3.16,7.76-.89,10.83,1.02,2.91,1.81,5.72,3.84,8.18,6.18,1.18,1.13,2.81,2.15,3.65,3.58,1.11,1.88.79,4.17.75,6.45-.05,3.48,4.51,7.49-1.01,8.26-2.16.3-8.8-1.52-9.29-4.14h3.09Z"/>
            <path class="uuid-76de373d-c6e8-469d-a246-05917a893980" d="M184.8,267.3c-.94,1.04-2.04.32-3.1-.01-1.02-.32-1.91-.51-3.07-.5-2.26.01-4.3.02-6.43-.51-2.03-.51-3.97-.8-5.92-1.29-.77-.19-1.51-.63-2.3-.79-.48-.1-1.03.06-1.52-.02-.23-.04-.25-.32-.42-.36-.4-.09-.77-.03-1.17-.1-1.94-.34-3.78-.92-5.52-1.44-.82-.25-1.57-.28-2.33-.74-.79-.48-1.87-1.02-2.58-1.54-2.77-2.05-5.82-3.78-8.35-6.32-2.39-2.4-4.84-4.59-7.34-6.82-.58-.52-1.05-1.2-1.66-1.68-.67-.53-1.3-.77-1.93-1.41-1.3-1.32-2.31-2.76-3.35-4.26-2.03-2.93-4.64-5.33-6.24-8.54-.77-1.55-1.47-3.06-2.38-4.55-.58-.94-1.14-2.09-1.56-3.11-.31-.77-.94-1.69-1.16-2.43-.32-1.11-.31-2.17-.62-3.24-.13-.47-.44-.79-.56-1.25-.14-.58.17-1.26.05-1.85-.11-.52-.44-.75-.56-1.24-.14-.58.17-1.26.05-1.85-.11-.52-.44-.75-.56-1.24-.16-.66.21-1.45.05-2.11-.12-.49-.45-.72-.56-1.24-.11-.53.01-1.27.02-1.82.01-1.33-.46-2.34-.53-3.6-.06-1.15-.25-2.76,0-3.88.11-.52.44-.75.56-1.24.16-.67-.16-1.36.06-2.04,1.39-.36.95,2.58.94,3.3-.01,1.33.55,2.05.51,3.35-.04,1.59.63,1.81,1.57,2.97.41.5,1.34,1.49,1.54,2.15.13.44.12,1.14.23,1.57.14.53.27.89.26,1.55-.02,1.25-.09,1.89.89,2.7.68.56,1.84,1.25,2.68,1.44,1.17.26,2.19.25,3.39.47.54.1.73.44,1.24.56.65.15,1.35-.25,1.98.08.6.31,1.36,1.51,1.53,2.07.33,1.11.1,2.01-.4,2.97-.18.34-.31.7-.52,1.03-.24.39-.72.75-.92,1.13-.97,1.78.43,4.68.81,6.18.15.59,1.03,2.37.55,2.9-.49.54-3.4.07-3.96-.25-.32.65.29,1.9.48,2.59.22.81.62,1.97,1.09,2.75.93,1.53,2.62,2.96,4.2,3.79,1.05.55,1.68.84,1.87-.57.09-.64-.1-.99.23-1.57.23-.42.65-.47.82-.99.17-.56-.18-1.27-.04-1.85.1-.42.4-.69.49-1.05.29-1.21-.19-2.58.02-3.82.41-2.48,2.25-3.59,4.4-4.12,2.19-.54,4.34-1.14,6.41-2.06,2.32-1.03,4.82-1.4,7.23-.64,1.97.62,3.54,1.81,5.34,2.76.83.44,1.58.64,2.39.95.94.37,1.92.72,2.86.99,1.7.49,3.66.77,5.23,1.71,1.47.88,3.47,2.04,4.51,3.47,1,1.36,1.96,4.18,1.23,5.89-.55,1.29-2.5,2.42-3.43,3.51-1.58,1.85-1.16,3.09,0,5,.42.7,1.17,1.62,1.37,2.37.27,1,.1,2.52.05,3.56-.05.99-.36,1.64-.89,2.45-.5.76-1.68,1.25-2.09,2.02-.37.7-.03,1.05.27,1.58.08.15.34.2.42.35.2.37.07.71.22,1.06.51,1.18,1.53,1,2.59,1.27,1.09.29,2.05.17,3.1-.24.63-.24.83-.43,1.52-.54.76-.12,1.12.29,1.67.41,1.27.26,1.99-.61,3.25-.67,1-.05,1.64.39,2.42,1.18.65.65,1.57,1.74,1.45,2.71-.11,1-1.39,1.63-2.1,2.56Z"/>
            <path class="uuid-76de373d-c6e8-469d-a246-05917a893980" d="M175.02,228.71c.32-.18.59-.31.9-.44.81.93,1.7,1.87,2.7,2.49,1.5.94,2.25.35,2.59-1.26.18-.83-.27-1.34-.42-1.93-.17-.68,0-1.41-.73-1.84-1-.59-3.93-.29-3.5,1.44l-1.54,1.54Z"/>
            <path class="uuid-76de373d-c6e8-469d-a246-05917a893980" d="M125.63,162.34c-.23.39-.55.55-.95.48-.22-.87-.2-2.37-.03-3.26.09-.48.41-.72.48-1.32.06-.5,0-.94.1-1.44.14-.64.66-1.65.8-2.29.21-1,.25-1.54.64-2.44.37-.83.58-1.92.95-2.86.34-.86.75-1.5,1.22-2.28.95-1.56,1.74-3.08,2.7-4.65,1.71-2.78,3.63-5.54,6.21-7.7.88-.74,1.88-1.3,2.8-1.94.32-.22.57-.58.87-.78.3-.2.79-.29,1.06-.49.8-.59,3.12-2.93,4.17-2.37-.73,1.91-1.98,3.83-2.9,5.7-1.06,2.16-3.04,2.07-4.63,3.6-2.48,2.4,1.65,3.41,3.08,4.35,1.4.92,1.42,2.24,1.42,3.75,0,1.41.11,2.54.51,3.86.17.54.45,1.23.54,1.8-.02.35-.04.7-.06,1.06.03.28.18.48.43.6.32,1.47-.29,2.34-.79,3.6-.49,1.23-.79,2.42-1.8,3.36-1.01.94-2.12.63-3.47.64-.87.01-1.26-.2-2.06-.4-.52-.13-1.26-.44-1.66-.51-.61-.12-1.22-.1-1.83-.23-.64-.14-.68-.51-1.54-.28-.89.23-1.73,1.24-2.66,1.45-1.29.29-2.77-.32-4.05.06-.03.14-.06.28.43.94Z"/>
          </g>
        </g>
        <g>
          <ellipse class="uuid-4ad839ae-871e-4d79-a804-ff9a0e91f4ad" cx="191.94" cy="191.94" rx="192.76" ry="191.12" transform="translate(-79.51 191.94) rotate(-45)"/>
          <ellipse class="uuid-f9664035-030f-4c21-a6db-006e5b843af0" cx="191.94" cy="191.94" rx="131.41" ry="130.29" transform="translate(-79.51 191.94) rotate(-45)"/>
        </g>
      </g>
    </g>
  </g>
</svg>