<?xml version="1.0" encoding="UTF-8"?>
<svg xmlns="http://www.w3.org/2000/svg" xmlns:xlink="http://www.w3.org/1999/xlink" viewBox="0 0 1306.51 771.44">
  <defs>
    <style>
      .uuid-fc69f00c-c338-44d2-a38d-f2ccafc57500 {
        fill: url(#uuid-65695ff9-fc5e-472f-b468-7b7b246bb1eb);
      }

      .uuid-fc69f00c-c338-44d2-a38d-f2ccafc57500, .uuid-45a24f8b-89c0-4cd1-bb46-9cb08b9ffda8, .uuid-fd4318a2-328d-4b68-b74b-88a5ca7781b6, .uuid-13f65f88-890a-4f8d-805f-b7f2399b15d4, .uuid-58df815d-a6e2-4760-a504-62770cf22078 {
        stroke-width: 0px;
      }

      .uuid-45a24f8b-89c0-4cd1-bb46-9cb08b9ffda8 {
        fill: url(#uuid-f14e81e9-017a-4a82-a89f-051240ba1a01);
      }

      .uuid-fd4318a2-328d-4b68-b74b-88a5ca7781b6 {
        opacity: .5;
      }

      .uuid-fd4318a2-328d-4b68-b74b-88a5ca7781b6, .uuid-58df815d-a6e2-4760-a504-62770cf22078 {
        fill: #9b8bd6;
        mix-blend-mode: multiply;
      }

      .uuid-13f65f88-890a-4f8d-805f-b7f2399b15d4 {
        fill: url(#uuid-67c47a19-1811-42dc-9527-cedc264f9649);
      }

      .uuid-1b932a1e-ba37-46bb-a5ce-02b001747035 {
        isolation: isolate;
      }

      .uuid-58df815d-a6e2-4760-a504-62770cf22078 {
        opacity: .3;
      }
    </style>
    <linearGradient id="uuid-67c47a19-1811-42dc-9527-cedc264f9649" x1="616.63" y1="-267.43" x2="915.07" y2="953.23" gradientUnits="userSpaceOnUse">
      <stop offset="0" stop-color="#6b9ee3"/>
      <stop offset="1" stop-color="#867ea8"/>
    </linearGradient>
    <linearGradient id="uuid-f14e81e9-017a-4a82-a89f-051240ba1a01" x1="890" y1="801.58" x2="890" y2="-681.24" gradientUnits="userSpaceOnUse">
      <stop offset="0" stop-color="#628ccc"/>
      <stop offset="1" stop-color="#6253a1"/>
    </linearGradient>
    <linearGradient id="uuid-65695ff9-fc5e-472f-b468-7b7b246bb1eb" x1="1079.01" y1="21.59" x2="499.13" y2="663.44" gradientUnits="userSpaceOnUse">
      <stop offset="0" stop-color="#9abff1"/>
      <stop offset="1" stop-color="#4e4fbd"/>
    </linearGradient>
  </defs>
  <g class="uuid-1b932a1e-ba37-46bb-a5ce-02b001747035">
    <g id="uuid-74e18bbf-ddd2-49a9-b41c-8ce03681a6d2" data-name="mountainback">
      <polygon class="uuid-13f65f88-890a-4f8d-805f-b7f2399b15d4" points="506.89 388.2 569.86 319.73 580.87 319.33 648.62 314 756.67 161.31 790.78 179.31 1072.41 492.24 623.94 592.06 506.89 388.2"/>
      <path class="uuid-45a24f8b-89c0-4cd1-bb46-9cb08b9ffda8" d="M559.55,452.44l87.95-63.87,35.38,6.29,39.11-4.88,87.64-53.52,229.69-202.08,267.19,558.82s-845.85,13.74-832.87,10.5c12.98-3.23,85.91-251.26,85.91-251.26Z"/>
      <g>
        <polygon class="uuid-fc69f00c-c338-44d2-a38d-f2ccafc57500" points="1156.68 763.56 223.17 752.3 223.33 681.38 0 562.11 224.56 157.02 347.71 3.5 349.7 1.02 350.52 0 377.1 20.78 443.75 185.84 444.4 185.62 472.63 176.22 474.7 175.53 485.01 197.09 496.52 197.09 611.17 429.68 666.71 499.08 677.03 499.08 882.14 396.85 1149.92 696.95 1156.68 763.56"/>
        <path class="uuid-fd4318a2-328d-4b68-b74b-88a5ca7781b6" d="M481.86,451.64l-5.89-38.89,20.08,15.67-40.15-191.82,10.17-7.84,17.4,16.54-10.84-69.09-.13-.84-28.09,10.25-.55.2-104.61,153.41-14.76-137.17,9.36-8.41,6.69-14.22,9.1,22.64-9.1-83.58,9.1-14.51,12.58,10.45L349.7,1.02l-1.99,2.48-123.15,153.52-96.8,171.45,95.86,230.73-.28,122.18,211.15-103.79,13.38,8.71-22.75-239.71,9.37-2.61,47.38,107.66ZM300.66,395.81l-60.98,89.43,5.02-271.27,10.93-4.24,12.35,43.12,35.34-31.77c-.79,45.7-2.24,131.89-2.67,174.73Z"/>
        <polygon class="uuid-58df815d-a6e2-4760-a504-62770cf22078" points="553.33 731.4 553.33 721.53 519.87 721.53 478.65 701.8 490.43 685.55 490.7 665.52 511.31 475.15 544.33 600.3 565.32 591.52 598.84 549.44 608.66 538.42 590 494.59 618.9 526.93 629.35 515.2 677 498.95 709.19 482.7 878.83 397.09 887.66 526.81 874.55 526.81 877.76 557.28 859.82 588.04 896.23 682.06 849.65 720.08 1089.76 751.71 1132.05 770.86 490.43 767.38 553.33 731.4"/>
        <polygon class="uuid-58df815d-a6e2-4760-a504-62770cf22078" points="874.55 526.81 634.97 591.52 614.63 588.04 877.76 499.53 885.46 494.47 887.66 526.81 874.55 526.81"/>
        <polygon class="uuid-58df815d-a6e2-4760-a504-62770cf22078" points="855.27 594.71 694.93 681.48 896.23 682.06 855.27 594.71"/>
        <polygon class="uuid-58df815d-a6e2-4760-a504-62770cf22078" points="841.35 724.43 797.45 766.8 532.72 771.44 578.23 736.91 789.96 723.85 789.96 717.47 864.91 703.83 841.35 724.43"/>
        <polygon class="uuid-58df815d-a6e2-4760-a504-62770cf22078" points="415.21 243.57 466.07 228.77 481.64 243.57 478.65 219.48 409.51 236.19 341.05 336.68 271.47 445.84 244.7 526.81 200.8 485.31 180.19 628.67 279.23 580.2 434.48 577.59 447.87 584.85 444.92 565.98 280.3 542.77 288.87 499.24 314.56 482.99 322.33 462.38 293.95 471.38 338.92 358.49 425.12 347.46 434.48 343.98 480.84 449.32 475.97 412.76 467.14 408.98 438.23 326.86 374.52 321.63 415.21 243.57"/>
        <polygon class="uuid-58df815d-a6e2-4760-a504-62770cf22078" points="349.63 103.98 268.79 118.49 359.69 94.65 362.21 114.43 349.63 103.98"/>
        <polygon class="uuid-58df815d-a6e2-4760-a504-62770cf22078" points="340.53 179.44 214.45 199.46 214.45 185.53 340.53 146.06 349.35 199.46 340.53 179.44"/>
        <polygon class="uuid-58df815d-a6e2-4760-a504-62770cf22078" points="301.11 359.55 314.56 208.75 261.83 217.16 303.32 219.48 301.11 359.55"/>
        <polygon class="uuid-fd4318a2-328d-4b68-b74b-88a5ca7781b6" points="708.05 507.36 593.22 582.81 614.63 588.04 678.07 605.45 634.97 689.9 553.33 720.08 544.17 721.53 519.87 721.53 478.65 701.8 490.43 685.55 535.85 628.52 510.77 471.38 520.14 459.48 568.71 587.27 598.84 549.44 608.66 538.42 588.67 491.11 594.29 494.59 566.72 446.42 621.96 523.49 629.35 515.2 677 498.95 709.19 482.7 717.95 482.99 708.05 507.36"/>
      </g>
    </g>
  </g>
</svg>