<?xml version="1.0" encoding="UTF-8"?>
<svg id="uuid-016b7c4c-7c4b-49f9-bb0e-db77bd4a1848" data-name="starts" xmlns="http://www.w3.org/2000/svg" viewBox="0 0 1333.93 800.27">
  <defs>
    <style>
      .uuid-eebb55cb-ae54-4c5f-b9a2-720000215051 {
        fill: #68b7e7;
      }

      .uuid-eebb55cb-ae54-4c5f-b9a2-720000215051, .uuid-2cbee1f4-09dc-4ac7-8c64-29205e82e7ad, .uuid-8a790275-09df-46d2-b46d-10ab4af57801, .uuid-40f4f8ba-cbbb-42a1-9538-f72d3208b449, .uuid-5c84de0d-d7c2-43ca-ab4c-253b2ace87f2, .uuid-4bc2ddd5-68c8-4d55-8c51-c0a7e9f2e7a5, .uuid-e7a4cecd-a569-47f9-947b-43d5207023a8 {
        stroke-width: 0px;
      }

      .uuid-eebb55cb-ae54-4c5f-b9a2-720000215051, .uuid-8a790275-09df-46d2-b46d-10ab4af57801, .uuid-5c84de0d-d7c2-43ca-ab4c-253b2ace87f2, .uuid-4bc2ddd5-68c8-4d55-8c51-c0a7e9f2e7a5, .uuid-e7a4cecd-a569-47f9-947b-43d5207023a8 {
        fill-rule: evenodd;
      }

      .uuid-2cbee1f4-09dc-4ac7-8c64-29205e82e7ad, .uuid-5c84de0d-d7c2-43ca-ab4c-253b2ace87f2 {
        fill: #365cbb;
      }

      .uuid-8a790275-09df-46d2-b46d-10ab4af57801 {
        fill: #b7ffff;
      }

      .uuid-40f4f8ba-cbbb-42a1-9538-f72d3208b449, .uuid-4bc2ddd5-68c8-4d55-8c51-c0a7e9f2e7a5 {
        fill: #90ffff;
      }

      .uuid-e7a4cecd-a569-47f9-947b-43d5207023a8 {
        fill: #406fbb;
      }
    </style>
  </defs>
  <path class="uuid-eebb55cb-ae54-4c5f-b9a2-720000215051" d="M742.13,132.69c0,1.01-.82,1.83-1.83,1.83s-1.83-.82-1.83-1.83.82-1.83,1.83-1.83,1.83.82,1.83,1.83Z"/>
  <path class="uuid-eebb55cb-ae54-4c5f-b9a2-720000215051" d="M706.64,329.4c0,1.01-.82,1.83-1.83,1.83s-1.83-.82-1.83-1.83.82-1.83,1.83-1.83,1.83.82,1.83,1.83Z"/>
  <path class="uuid-eebb55cb-ae54-4c5f-b9a2-720000215051" d="M968.72,427.1c0,1.01-.82,1.83-1.83,1.83s-1.83-.82-1.83-1.83.82-1.83,1.83-1.83,1.83.82,1.83,1.83Z"/>
  <path class="uuid-eebb55cb-ae54-4c5f-b9a2-720000215051" d="M1020.46,651.21c0,1.01-.82,1.83-1.83,1.83s-1.83-.82-1.83-1.83.82-1.83,1.83-1.83,1.83.82,1.83,1.83Z"/>
  <path class="uuid-e7a4cecd-a569-47f9-947b-43d5207023a8" d="M853.6,352.23c0,1.01-.82,1.83-1.83,1.83s-1.83-.82-1.83-1.83.82-1.83,1.83-1.83,1.83.82,1.83,1.83Z"/>
  <path class="uuid-e7a4cecd-a569-47f9-947b-43d5207023a8" d="M767.14,310.54c0,1.01-.82,1.83-1.83,1.83s-1.83-.82-1.83-1.83.82-1.83,1.83-1.83,1.83.82,1.83,1.83Z"/>
  <path class="uuid-5c84de0d-d7c2-43ca-ab4c-253b2ace87f2" d="M659.75,226.99c0,1.01-.82,1.83-1.83,1.83s-1.83-.82-1.83-1.83.82-1.83,1.83-1.83,1.83.82,1.83,1.83Z"/>
  <circle class="uuid-2cbee1f4-09dc-4ac7-8c64-29205e82e7ad" cx="894.16" cy="26.2" r="1.83"/>
  <path class="uuid-5c84de0d-d7c2-43ca-ab4c-253b2ace87f2" d="M881.53,350.4c0,1.01-.82,1.83-1.83,1.83s-1.83-.82-1.83-1.83.82-1.83,1.83-1.83,1.83.82,1.83,1.83Z"/>
  <path class="uuid-4bc2ddd5-68c8-4d55-8c51-c0a7e9f2e7a5" d="M528.61,775.76c0,1.01-.82,1.83-1.83,1.83s-1.83-.82-1.83-1.83.82-1.83,1.83-1.83,1.83.82,1.83,1.83Z"/>
  <path class="uuid-e7a4cecd-a569-47f9-947b-43d5207023a8" d="M946.48,130.98c0,1.01-.82,1.83-1.83,1.83s-1.83-.82-1.83-1.83.82-1.83,1.83-1.83,1.83.82,1.83,1.83Z"/>
  <path class="uuid-e7a4cecd-a569-47f9-947b-43d5207023a8" d="M946.42,294.93c0,1.01-.82,1.83-1.83,1.83s-1.83-.82-1.83-1.83.82-1.83,1.83-1.83,1.83.82,1.83,1.83Z"/>
  <path class="uuid-e7a4cecd-a569-47f9-947b-43d5207023a8" d="M479.43,207.26c0,1.01-.82,1.83-1.83,1.83s-1.83-.82-1.83-1.83.82-1.83,1.83-1.83,1.83.82,1.83,1.83Z"/>
  <path class="uuid-e7a4cecd-a569-47f9-947b-43d5207023a8" d="M234.05,1.83c0-1.01.82-1.83,1.83-1.83s1.83.82,1.83,1.83-.82,1.83-1.83,1.83-1.83-.82-1.83-1.83Z"/>
  <path class="uuid-e7a4cecd-a569-47f9-947b-43d5207023a8" d="M575.99,302.94c0,1.01-.82,1.83-1.83,1.83s-1.83-.82-1.83-1.83.82-1.83,1.83-1.83,1.83.82,1.83,1.83Z"/>
  <path class="uuid-e7a4cecd-a569-47f9-947b-43d5207023a8" d="M744.22,798.44c0,1.01-.82,1.83-1.83,1.83s-1.83-.82-1.83-1.83.82-1.83,1.83-1.83,1.83.82,1.83,1.83Z"/>
  <path class="uuid-e7a4cecd-a569-47f9-947b-43d5207023a8" d="M107.57,25.4c0-1.01.82-1.83,1.83-1.83s1.83.82,1.83,1.83-.82,1.83-1.83,1.83-1.83-.82-1.83-1.83Z"/>
  <path class="uuid-e7a4cecd-a569-47f9-947b-43d5207023a8" d="M955.28,543.53c0,1.01-.82,1.83-1.83,1.83s-1.83-.82-1.83-1.83.82-1.83,1.83-1.83,1.83.82,1.83,1.83Z"/>
  <path class="uuid-e7a4cecd-a569-47f9-947b-43d5207023a8" d="M373.33,291.39c0,1.01-.82,1.83-1.83,1.83s-1.83-.82-1.83-1.83.82-1.83,1.83-1.83,1.83.82,1.83,1.83Z"/>
  <path class="uuid-e7a4cecd-a569-47f9-947b-43d5207023a8" d="M136.04,133.43c0,1.01-.82,1.83-1.83,1.83s-1.83-.82-1.83-1.83.82-1.83,1.83-1.83,1.83.82,1.83,1.83Z"/>
  <path class="uuid-e7a4cecd-a569-47f9-947b-43d5207023a8" d="M804.42,462.8c0,1.01-.82,1.83-1.83,1.83s-1.83-.82-1.83-1.83.82-1.83,1.83-1.83,1.83.82,1.83,1.83Z"/>
  <path class="uuid-e7a4cecd-a569-47f9-947b-43d5207023a8" d="M661.58,160.31c0,1.01-.82,1.83-1.83,1.83s-1.83-.82-1.83-1.83.82-1.83,1.83-1.83,1.83.82,1.83,1.83Z"/>
  <path class="uuid-e7a4cecd-a569-47f9-947b-43d5207023a8" d="M1089.07,596.51c0,1.01-.82,1.83-1.83,1.83s-1.83-.82-1.83-1.83.82-1.83,1.83-1.83,1.83.82,1.83,1.83Z"/>
  <path class="uuid-eebb55cb-ae54-4c5f-b9a2-720000215051" d="M983.41,167.64c0,1.01-.82,1.83-1.83,1.83s-1.83-.82-1.83-1.83.82-1.83,1.83-1.83,1.83.82,1.83,1.83Z"/>
  <path class="uuid-e7a4cecd-a569-47f9-947b-43d5207023a8" d="M1073.07,182.84c0,1.01-.82,1.83-1.83,1.83s-1.83-.82-1.83-1.83.82-1.83,1.83-1.83,1.83.82,1.83,1.83Z"/>
  <path class="uuid-e7a4cecd-a569-47f9-947b-43d5207023a8" d="M862.54,656.85c0,1.01-.82,1.83-1.83,1.83s-1.83-.82-1.83-1.83.82-1.83,1.83-1.83,1.83.82,1.83,1.83Z"/>
  <path class="uuid-4bc2ddd5-68c8-4d55-8c51-c0a7e9f2e7a5" d="M520.05,237.53c0,1.01-.82,1.83-1.83,1.83s-1.83-.82-1.83-1.83.82-1.83,1.83-1.83,1.83.82,1.83,1.83Z"/>
  <circle class="uuid-40f4f8ba-cbbb-42a1-9538-f72d3208b449" cx="688.96" cy="259.6" r="1.83"/>
  <path class="uuid-4bc2ddd5-68c8-4d55-8c51-c0a7e9f2e7a5" d="M363.91,167.58c0,1.01-.82,1.83-1.83,1.83s-1.83-.82-1.83-1.83.82-1.83,1.83-1.83,1.83.82,1.83,1.83Z"/>
  <path class="uuid-8a790275-09df-46d2-b46d-10ab4af57801" d="M800.42,525.18c0,1.01-.82,1.83-1.83,1.83s-1.83-.82-1.83-1.83.82-1.83,1.83-1.83,1.83.82,1.83,1.83Z"/>
  <path class="uuid-4bc2ddd5-68c8-4d55-8c51-c0a7e9f2e7a5" d="M716.75,20.49c0-1.01.82-1.83,1.83-1.83s1.83.82,1.83,1.83-.82,1.83-1.83,1.83-1.83-.82-1.83-1.83Z"/>
  <path class="uuid-4bc2ddd5-68c8-4d55-8c51-c0a7e9f2e7a5" d="M1071.24,346.05c0,1.01-.82,1.83-1.83,1.83s-1.83-.82-1.83-1.83.82-1.83,1.83-1.83,1.83.82,1.83,1.83Z"/>
  <path class="uuid-4bc2ddd5-68c8-4d55-8c51-c0a7e9f2e7a5" d="M700.12,531.18c0,1.01-.82,1.83-1.83,1.83s-1.83-.82-1.83-1.83.82-1.83,1.83-1.83,1.83.82,1.83,1.83Z"/>
  <path class="uuid-4bc2ddd5-68c8-4d55-8c51-c0a7e9f2e7a5" d="M447.73,547.13c0,1.01-.82,1.83-1.83,1.83s-1.83-.82-1.83-1.83.82-1.83,1.83-1.83,1.83.82,1.83,1.83Z"/>
  <path class="uuid-4bc2ddd5-68c8-4d55-8c51-c0a7e9f2e7a5" d="M387.8,36.07c0-1.01.82-1.83,1.83-1.83s1.83.82,1.83,1.83-.82,1.83-1.83,1.83-1.83-.82-1.83-1.83Z"/>
  <path class="uuid-4bc2ddd5-68c8-4d55-8c51-c0a7e9f2e7a5" d="M945.41,132.63c0,1.01-.82,1.83-1.83,1.83s-1.83-.82-1.83-1.83.82-1.83,1.83-1.83,1.83.82,1.83,1.83Z"/>
  <path class="uuid-4bc2ddd5-68c8-4d55-8c51-c0a7e9f2e7a5" d="M883.36,237.53c0,1.01-.82,1.83-1.83,1.83s-1.83-.82-1.83-1.83.82-1.83,1.83-1.83,1.83.82,1.83,1.83Z"/>
  <path class="uuid-4bc2ddd5-68c8-4d55-8c51-c0a7e9f2e7a5" d="M694.42,238.12c0,1.01-.82,1.83-1.83,1.83s-1.83-.82-1.83-1.83.82-1.83,1.83-1.83,1.83.82,1.83,1.83Z"/>
  <path class="uuid-4bc2ddd5-68c8-4d55-8c51-c0a7e9f2e7a5" d="M753.23,557.09c0,1.01-.82,1.83-1.83,1.83s-1.83-.82-1.83-1.83.82-1.83,1.83-1.83,1.83.82,1.83,1.83Z"/>
  <path class="uuid-eebb55cb-ae54-4c5f-b9a2-720000215051" d="M701.98,399.19c0,1.01-.82,1.83-1.83,1.83s-1.83-.82-1.83-1.83.82-1.83,1.83-1.83,1.83.82,1.83,1.83Z"/>
  <path class="uuid-e7a4cecd-a569-47f9-947b-43d5207023a8" d="M586.85,324.33c0,1.01-.82,1.83-1.83,1.83s-1.83-.82-1.83-1.83.82-1.83,1.83-1.83,1.83.82,1.83,1.83Z"/>
  <path class="uuid-e7a4cecd-a569-47f9-947b-43d5207023a8" d="M500.4,282.64c0,1.01-.82,1.83-1.83,1.83s-1.83-.82-1.83-1.83.82-1.83,1.83-1.83,1.83.82,1.83,1.83Z"/>
  <path class="uuid-5c84de0d-d7c2-43ca-ab4c-253b2ace87f2" d="M393.01,199.09c0,1.01-.82,1.83-1.83,1.83s-1.83-.82-1.83-1.83.82-1.83,1.83-1.83,1.83.82,1.83,1.83Z"/>
  <path class="uuid-5c84de0d-d7c2-43ca-ab4c-253b2ace87f2" d="M3.66,164.41c0,1.01-.82,1.83-1.83,1.83s-1.83-.82-1.83-1.83.82-1.83,1.83-1.83,1.83.82,1.83,1.83Z"/>
  <path class="uuid-5c84de0d-d7c2-43ca-ab4c-253b2ace87f2" d="M1221.71,14.55c0-1.01.82-1.83,1.83-1.83s1.83.82,1.83,1.83-.82,1.83-1.83,1.83-1.83-.82-1.83-1.83Z"/>
  <path class="uuid-5c84de0d-d7c2-43ca-ab4c-253b2ace87f2" d="M313.22,474.75c0,1.01-.82,1.83-1.83,1.83s-1.83-.82-1.83-1.83.82-1.83,1.83-1.83,1.83.82,1.83,1.83Z"/>
  <path class="uuid-5c84de0d-d7c2-43ca-ab4c-253b2ace87f2" d="M614.79,322.5c0,1.01-.82,1.83-1.83,1.83s-1.83-.82-1.83-1.83.82-1.83,1.83-1.83,1.83.82,1.83,1.83Z"/>
  <path class="uuid-e7a4cecd-a569-47f9-947b-43d5207023a8" d="M212.69,179.36c0,1.01-.82,1.83-1.83,1.83s-1.83-.82-1.83-1.83.82-1.83,1.83-1.83,1.83.82,1.83,1.83Z"/>
  <path class="uuid-e7a4cecd-a569-47f9-947b-43d5207023a8" d="M309.25,275.03c0,1.01-.82,1.83-1.83,1.83s-1.83-.82-1.83-1.83.82-1.83,1.83-1.83,1.83.82,1.83,1.83Z"/>
  <path class="uuid-e7a4cecd-a569-47f9-947b-43d5207023a8" d="M54.43,151.55c0,1.01-.82,1.83-1.83,1.83s-1.83-.82-1.83-1.83.82-1.83,1.83-1.83,1.83.82,1.83,1.83Z"/>
  <path class="uuid-e7a4cecd-a569-47f9-947b-43d5207023a8" d="M323.14,531.02c0,1.01-.82,1.83-1.83,1.83s-1.83-.82-1.83-1.83.82-1.83,1.83-1.83,1.83.82,1.83,1.83Z"/>
  <path class="uuid-e7a4cecd-a569-47f9-947b-43d5207023a8" d="M106.59,263.48c0,1.01-.82,1.83-1.83,1.83s-1.83-.82-1.83-1.83.82-1.83,1.83-1.83,1.83.82,1.83,1.83Z"/>
  <path class="uuid-e7a4cecd-a569-47f9-947b-43d5207023a8" d="M394.84,132.4c0,1.01-.82,1.83-1.83,1.83s-1.83-.82-1.83-1.83.82-1.83,1.83-1.83,1.83.82,1.83,1.83Z"/>
  <path class="uuid-4bc2ddd5-68c8-4d55-8c51-c0a7e9f2e7a5" d="M253.31,209.62c0,1.01-.82,1.83-1.83,1.83s-1.83-.82-1.83-1.83.82-1.83,1.83-1.83,1.83.82,1.83,1.83Z"/>
  <path class="uuid-4bc2ddd5-68c8-4d55-8c51-c0a7e9f2e7a5" d="M1330.27,24.51c0-1.01.82-1.83,1.83-1.83s1.83.82,1.83,1.83-.82,1.83-1.83,1.83-1.83-.82-1.83-1.83Z"/>
  <path class="uuid-8a790275-09df-46d2-b46d-10ab4af57801" d="M533.67,497.27c0,1.01-.82,1.83-1.83,1.83s-1.83-.82-1.83-1.83.82-1.83,1.83-1.83,1.83.82,1.83,1.83Z"/>
  <path class="uuid-4bc2ddd5-68c8-4d55-8c51-c0a7e9f2e7a5" d="M433.38,503.27c0,1.01-.82,1.83-1.83,1.83s-1.83-.82-1.83-1.83.82-1.83,1.83-1.83,1.83.82,1.83,1.83Z"/>
  <path class="uuid-4bc2ddd5-68c8-4d55-8c51-c0a7e9f2e7a5" d="M180.99,519.22c0,1.01-.82,1.83-1.83,1.83s-1.83-.82-1.83-1.83.82-1.83,1.83-1.83,1.83.82,1.83,1.83Z"/>
  <path class="uuid-4bc2ddd5-68c8-4d55-8c51-c0a7e9f2e7a5" d="M762.84,11.7c0-1.01.82-1.83,1.83-1.83s1.83.82,1.83,1.83-.82,1.83-1.83,1.83-1.83-.82-1.83-1.83Z"/>
  <path class="uuid-4bc2ddd5-68c8-4d55-8c51-c0a7e9f2e7a5" d="M616.62,209.62c0,1.01-.82,1.83-1.83,1.83s-1.83-.82-1.83-1.83.82-1.83,1.83-1.83,1.83.82,1.83,1.83Z"/>
  <path class="uuid-4bc2ddd5-68c8-4d55-8c51-c0a7e9f2e7a5" d="M433.59,223.1c0,1.01-.82,1.83-1.83,1.83s-1.83-.82-1.83-1.83.82-1.83,1.83-1.83,1.83.82,1.83,1.83Z"/>
  <path class="uuid-4bc2ddd5-68c8-4d55-8c51-c0a7e9f2e7a5" d="M486.49,529.19c0,1.01-.82,1.83-1.83,1.83s-1.83-.82-1.83-1.83.82-1.83,1.83-1.83,1.83.82,1.83,1.83Z"/>
  <path class="uuid-4bc2ddd5-68c8-4d55-8c51-c0a7e9f2e7a5" d="M945.01,520.43c0,1.01-.82,1.83-1.83,1.83s-1.83-.82-1.83-1.83.82-1.83,1.83-1.83,1.83.82,1.83,1.83Z"/>
  <path class="uuid-e7a4cecd-a569-47f9-947b-43d5207023a8" d="M1200.55,289.57c0,1.01-.82,1.83-1.83,1.83s-1.83-.82-1.83-1.83.82-1.83,1.83-1.83,1.83.82,1.83,1.83Z"/>
  <path class="uuid-e7a4cecd-a569-47f9-947b-43d5207023a8" d="M1049.69,208.83c0,1.01-.82,1.83-1.83,1.83s-1.83-.82-1.83-1.83.82-1.83,1.83-1.83,1.83.82,1.83,1.83Z"/>
  <path class="uuid-e7a4cecd-a569-47f9-947b-43d5207023a8" d="M920.8,340.77c0,1.01-.82,1.83-1.83,1.83s-1.83-.82-1.83-1.83.82-1.83,1.83-1.83,1.83.82,1.83,1.83Z"/>
  <path class="uuid-e7a4cecd-a569-47f9-947b-43d5207023a8" d="M1107.82,402.88c0,1.01-.82,1.83-1.83,1.83s-1.83-.82-1.83-1.83.82-1.83,1.83-1.83,1.83.82,1.83,1.83Z"/>
  <path class="uuid-4bc2ddd5-68c8-4d55-8c51-c0a7e9f2e7a5" d="M1190.29,266.47c0,1.01-.82,1.83-1.83,1.83s-1.83-.82-1.83-1.83.82-1.83,1.83-1.83,1.83.82,1.83,1.83Z"/>
</svg>